<mxfile host="app.diagrams.net" modified="2023-09-19T15:06:26.125Z" agent="Mozilla/5.0 (Windows NT 10.0; Win64; x64) AppleWebKit/537.36 (KHTML, like Gecko) Chrome/117.0.0.0 Safari/537.36" etag="94pUnoZkaN7x22MROBQS" version="21.7.4" type="device">
  <diagram id="EF2RwQiEzDKI9R7edo3s" name="Page-1">
    <mxGraphModel dx="1893" dy="1733" grid="1" gridSize="10" guides="1" tooltips="1" connect="1" arrows="1" fold="1" page="1" pageScale="1" pageWidth="827" pageHeight="1169" math="1" shadow="0">
      <root>
        <mxCell id="0" />
        <mxCell id="1" parent="0" />
        <mxCell id="xUQgQYKOs8BukK8EdxpF-11" value="" style="endArrow=classic;startArrow=classic;html=1;rounded=0;entryX=0;entryY=0.5;entryDx=0;entryDy=0;exitX=1;exitY=0.5;exitDx=0;exitDy=0;" parent="1" edge="1">
          <mxGeometry width="50" height="50" relative="1" as="geometry">
            <mxPoint x="300" y="230" as="sourcePoint" />
            <mxPoint x="410" y="230" as="targetPoint" />
          </mxGeometry>
        </mxCell>
        <mxCell id="xUQgQYKOs8BukK8EdxpF-13" value="" style="endArrow=classic;startArrow=classic;html=1;rounded=0;entryX=0;entryY=0.5;entryDx=0;entryDy=0;exitX=1;exitY=0.5;exitDx=0;exitDy=0;" parent="1" edge="1">
          <mxGeometry width="50" height="50" relative="1" as="geometry">
            <mxPoint x="40" y="230" as="sourcePoint" />
            <mxPoint x="140" y="230" as="targetPoint" />
          </mxGeometry>
        </mxCell>
        <mxCell id="xUQgQYKOs8BukK8EdxpF-15" value="" style="endArrow=classic;startArrow=classic;html=1;rounded=0;entryX=0.5;entryY=1;entryDx=0;entryDy=0;exitX=0.5;exitY=0;exitDx=0;exitDy=0;" parent="1" edge="1">
          <mxGeometry width="50" height="50" relative="1" as="geometry">
            <mxPoint x="220" y="200" as="sourcePoint" />
            <mxPoint x="220" y="130" as="targetPoint" />
          </mxGeometry>
        </mxCell>
        <mxCell id="xUQgQYKOs8BukK8EdxpF-26" value="素材服务器" style="swimlane;childLayout=stackLayout;horizontal=1;startSize=30;horizontalStack=0;rounded=1;fontSize=14;fontStyle=0;strokeWidth=2;resizeParent=0;resizeLast=1;shadow=0;dashed=0;align=center;" parent="1" vertex="1">
          <mxGeometry x="-120" y="170" width="160" height="120" as="geometry" />
        </mxCell>
        <mxCell id="xUQgQYKOs8BukK8EdxpF-27" value="定义素材索引格式&#xa;静态素材索引&#xa;运行时素材获取、转换" style="align=left;strokeColor=none;fillColor=none;spacingLeft=4;fontSize=12;verticalAlign=top;resizable=0;rotatable=0;part=1;" parent="xUQgQYKOs8BukK8EdxpF-26" vertex="1">
          <mxGeometry y="30" width="160" height="90" as="geometry" />
        </mxCell>
        <mxCell id="xUQgQYKOs8BukK8EdxpF-34" value="存档服务器" style="swimlane;childLayout=stackLayout;horizontal=1;startSize=30;horizontalStack=0;rounded=1;fontSize=14;fontStyle=0;strokeWidth=2;resizeParent=0;resizeLast=1;shadow=0;dashed=0;align=center;" parent="1" vertex="1">
          <mxGeometry x="410" y="180" width="160" height="120" as="geometry" />
        </mxCell>
        <mxCell id="xUQgQYKOs8BukK8EdxpF-35" value="定义存档格式&#xa;持久化数据存储&#xa;脚本执行进度存储&#xa;中断场景存储" style="align=left;strokeColor=none;fillColor=none;spacingLeft=4;fontSize=12;verticalAlign=top;resizable=0;rotatable=0;part=1;" parent="xUQgQYKOs8BukK8EdxpF-34" vertex="1">
          <mxGeometry y="30" width="160" height="90" as="geometry" />
        </mxCell>
        <mxCell id="xUQgQYKOs8BukK8EdxpF-36" value="舞台" style="swimlane;childLayout=stackLayout;horizontal=1;startSize=30;horizontalStack=0;rounded=1;fontSize=14;fontStyle=0;strokeWidth=2;resizeParent=0;resizeLast=1;shadow=0;dashed=0;align=center;" parent="1" vertex="1">
          <mxGeometry x="80" y="420" width="280" height="90" as="geometry" />
        </mxCell>
        <mxCell id="xUQgQYKOs8BukK8EdxpF-37" value="定义场景格式&#xa;活跃场景管理：场景初始化、销毁、内部对象管理" style="align=left;strokeColor=none;fillColor=none;spacingLeft=4;fontSize=12;verticalAlign=top;resizable=0;rotatable=0;part=1;" parent="xUQgQYKOs8BukK8EdxpF-36" vertex="1">
          <mxGeometry y="30" width="280" height="60" as="geometry" />
        </mxCell>
        <mxCell id="xUQgQYKOs8BukK8EdxpF-38" value="IO服务器" style="swimlane;childLayout=stackLayout;horizontal=1;startSize=30;horizontalStack=0;rounded=1;fontSize=14;fontStyle=0;strokeWidth=2;resizeParent=0;resizeLast=1;shadow=0;dashed=0;align=center;" parent="1" vertex="1">
          <mxGeometry x="125" y="10" width="190" height="120" as="geometry" />
        </mxCell>
        <mxCell id="xUQgQYKOs8BukK8EdxpF-39" value="脚本运行时和UI运行时交互界面，&#xa;采用消息传递" style="align=left;strokeColor=none;fillColor=none;spacingLeft=4;fontSize=12;verticalAlign=top;resizable=0;rotatable=0;part=1;" parent="xUQgQYKOs8BukK8EdxpF-38" vertex="1">
          <mxGeometry y="30" width="190" height="90" as="geometry" />
        </mxCell>
        <mxCell id="xUQgQYKOs8BukK8EdxpF-40" value="运行时核心" style="swimlane;childLayout=stackLayout;horizontal=1;startSize=30;horizontalStack=0;rounded=1;fontSize=14;fontStyle=0;strokeWidth=2;resizeParent=0;resizeLast=1;shadow=0;dashed=0;align=center;" parent="1" vertex="1">
          <mxGeometry x="140" y="200" width="160" height="150" as="geometry" />
        </mxCell>
        <mxCell id="xUQgQYKOs8BukK8EdxpF-32" value="脚本解释器" style="swimlane;childLayout=stackLayout;horizontal=1;startSize=30;horizontalStack=0;rounded=1;fontSize=14;fontStyle=0;strokeWidth=2;resizeParent=0;resizeLast=1;shadow=0;dashed=0;align=center;" parent="xUQgQYKOs8BukK8EdxpF-40" vertex="1">
          <mxGeometry y="30" width="160" height="80" as="geometry" />
        </mxCell>
        <mxCell id="xUQgQYKOs8BukK8EdxpF-33" value="定义脚本格式&#xa;运行时脚本解释执行" style="align=left;strokeColor=none;fillColor=none;spacingLeft=4;fontSize=12;verticalAlign=top;resizable=0;rotatable=0;part=1;" parent="xUQgQYKOs8BukK8EdxpF-32" vertex="1">
          <mxGeometry y="30" width="160" height="50" as="geometry" />
        </mxCell>
        <mxCell id="xUQgQYKOs8BukK8EdxpF-41" value="服务器间通信&#xa;" style="align=left;strokeColor=none;fillColor=none;spacingLeft=4;fontSize=12;verticalAlign=top;resizable=0;rotatable=0;part=1;" parent="xUQgQYKOs8BukK8EdxpF-40" vertex="1">
          <mxGeometry y="110" width="160" height="40" as="geometry" />
        </mxCell>
        <mxCell id="xUQgQYKOs8BukK8EdxpF-43" value="" style="endArrow=classic;startArrow=classic;html=1;rounded=0;entryX=0.5;entryY=1;entryDx=0;entryDy=0;exitX=0.5;exitY=0;exitDx=0;exitDy=0;" parent="1" edge="1">
          <mxGeometry width="50" height="50" relative="1" as="geometry">
            <mxPoint x="219.5" y="420" as="sourcePoint" />
            <mxPoint x="219.5" y="350" as="targetPoint" />
          </mxGeometry>
        </mxCell>
        <mxCell id="xTKYLgHLG-VTfwgukwCC-1" value="UI/UX" style="swimlane;childLayout=stackLayout;horizontal=1;startSize=30;horizontalStack=0;rounded=1;fontSize=14;fontStyle=0;strokeWidth=2;resizeParent=0;resizeLast=1;shadow=0;dashed=0;align=center;" vertex="1" parent="1">
          <mxGeometry x="140" y="-190" width="160" height="120" as="geometry" />
        </mxCell>
        <mxCell id="xTKYLgHLG-VTfwgukwCC-2" value="UI界面设计&#xa;UI逻辑实现" style="align=left;strokeColor=none;fillColor=none;spacingLeft=4;fontSize=12;verticalAlign=top;resizable=0;rotatable=0;part=1;" vertex="1" parent="xTKYLgHLG-VTfwgukwCC-1">
          <mxGeometry y="30" width="160" height="90" as="geometry" />
        </mxCell>
        <mxCell id="xTKYLgHLG-VTfwgukwCC-4" value="" style="endArrow=classic;startArrow=classic;html=1;rounded=0;entryX=0.5;entryY=1;entryDx=0;entryDy=0;exitX=0.5;exitY=0;exitDx=0;exitDy=0;" edge="1" parent="1" source="xUQgQYKOs8BukK8EdxpF-38" target="xTKYLgHLG-VTfwgukwCC-2">
          <mxGeometry width="50" height="50" relative="1" as="geometry">
            <mxPoint x="230" y="210" as="sourcePoint" />
            <mxPoint x="230" y="140" as="targetPoint" />
          </mxGeometry>
        </mxCell>
      </root>
    </mxGraphModel>
  </diagram>
</mxfile>
